<svg width="21" height="21" viewBox="0 0 21 21" fill="none" xmlns="http://www.w3.org/2000/svg">
<path d="M8.76795 3C9.53775 1.66667 11.4623 1.66667 12.2321 3L17.8612 12.75C18.631 14.0833 17.6688 15.75 16.1292 15.75H4.87084C3.33124 15.75 2.36898 14.0833 3.13878 12.75L8.76795 3Z" fill="#D90F06"/>
<path d="M9.80004 10.7H11.12L11.25 9.2V6H9.67004V9.2L9.80004 10.7ZM10.46 13.1C10.99 13.1 11.38 12.74 11.38 12.23C11.38 11.72 10.99 11.36 10.46 11.36C9.93004 11.36 9.54004 11.72 9.54004 12.23C9.54004 12.74 9.93004 13.1 10.46 13.1Z" fill="white"/>
</svg>
